<svg width="163" height="163" viewBox="0 0 163 163" fill="none" xmlns="http://www.w3.org/2000/svg">
<mask id="mask0_123_445" style="mask-type:luminance" maskUnits="userSpaceOnUse" x="1" y="1" width="161" height="159">
<path d="M1.02539 1.99292H161.003V159.291H1.02539V1.99292Z" fill="white"/>
</mask>
<g mask="url(#mask0_123_445)">
<path d="M160.153 34.8333L128.199 2.85762C127.688 2.34645 126.966 2.04209 126.266 2.07721C125.544 2.09047 124.857 2.39717 124.364 2.92707L114.471 13.5859C113.508 14.6278 113.526 16.2393 114.514 17.2577L115.265 18.0303L111.337 21.9605L105.133 20.4098C99.6741 19.0347 93.7999 20.6681 89.6778 24.8012L78.3611 38.0018L65.2089 24.841C61.4309 21.0599 55.929 19.7621 50.854 21.4493C50.5528 21.55 50.2711 21.7045 50.0229 21.9019L49.3018 22.4857L47.549 20.7298L50.9921 17.2843C52.0332 16.2424 52.0332 14.5583 50.9921 13.5164L40.3411 2.85762C39.3001 1.81577 37.6167 1.81577 36.5756 2.85762L1.95902 37.4984C0.917956 38.5403 0.917956 40.2244 1.95902 41.2663L12.6101 51.9243C13.1298 52.4441 13.8111 52.7055 14.4932 52.7055C15.1745 52.7055 15.8566 52.4441 16.3755 51.9243L17.5789 50.7201L23.8901 57.0352L22.3402 63.2441C20.9714 68.7148 22.5985 74.5874 26.5552 78.5441L49.1121 101.767V122.599C49.1121 127.296 51.7804 131.638 56.0757 133.934C58.3499 135.146 59.764 137.505 59.764 140.087V140.638H57.1012C55.6286 140.638 54.4377 141.83 54.4377 143.303V156.626C54.4377 158.1 55.6286 159.291 57.1012 159.291H107.695C109.167 159.291 110.358 158.1 110.358 156.626V143.303C110.358 141.83 109.167 140.638 107.695 140.638H105.032V137.961L109.253 134.065C113.279 131.032 115.683 126.212 115.683 121.168V89.9544C118.682 89.6134 121.635 88.2407 123.996 85.8721L138.073 70.5769C141.388 67.2593 142.527 62.4341 141.041 57.9842C140.615 56.6996 142.908 52.4924 145.64 49.2678C146.13 49.7501 146.783 50.0302 147.473 50.0381C147.48 50.0381 147.491 50.0381 147.499 50.0381C148.199 50.0381 148.873 49.761 149.371 49.2678L160.145 38.609C160.648 38.1111 160.933 37.4344 160.935 36.7227C160.939 36.011 160.656 35.3344 160.153 34.8333ZM14.4932 46.2726L7.60685 39.3823L38.458 8.50934L45.3443 15.4004L14.4932 46.2726ZM49.347 94.3645L30.3449 74.8028C27.6766 72.133 26.5903 68.1974 27.5034 64.5334L29.4209 56.862C29.6495 55.9536 29.3811 54.9944 28.72 54.3334L21.3444 46.9523L43.7843 24.4976L47.2275 27.9431C48.1881 28.9077 49.7248 28.9849 50.7791 28.1343L52.9658 26.3729C55.993 25.5363 59.2075 26.3706 61.4442 28.6088L76.1213 43.2961C76.1135 43.3047 76.1026 43.307 76.0948 43.3148C74.8992 44.4129 74.0181 45.8036 73.5249 47.3253C71.8931 46.438 70.0053 46.0494 68.1276 46.2406C63.4358 46.7096 59.7585 50.9543 59.7585 55.9005V83.7673C54.4829 84.8435 50.3397 89.0562 49.347 94.3645ZM105.029 153.962H59.7608V145.968H105.029V153.962ZM110.355 121.168C110.355 124.547 108.746 127.774 105.847 129.975L100.566 134.83C100.017 135.333 99.7061 136.045 99.7061 136.791V140.638H65.0895V140.084C65.0895 135.53 62.5945 131.368 58.5816 129.231C56.0274 127.864 54.4377 125.322 54.4377 122.599V96.8236C54.4377 93.3547 56.672 90.4235 59.764 89.32V105.998H65.0895V55.9005C65.0895 53.6568 66.6581 51.7432 68.663 51.5435C69.8156 51.4397 70.916 51.7885 71.7627 52.5564C72.6095 53.3236 73.0777 54.3787 73.0777 55.5189V95.3393H78.4033V50.1926C78.4033 49.0571 78.8645 48.0129 79.698 47.2457C80.5314 46.4833 81.6068 46.1103 82.7603 46.2117C84.762 46.385 86.3892 48.3836 86.3892 50.6639V95.3393H91.7147V58.1863C91.7147 57.0516 92.1759 56.0066 93.0094 55.2395C93.8429 54.477 94.9214 54.1094 96.0717 54.2054C98.0743 54.3787 99.7006 56.3773 99.7006 58.6585V95.3393H105.027V73.3325C108.118 74.4352 110.352 77.3664 110.352 80.8361V121.168H110.355ZM135.99 59.6706C136.829 62.1914 136.185 64.9283 134.23 66.8863L120.154 82.1816C118.86 83.4763 117.284 84.2816 115.68 84.593V80.833C115.68 74.3978 111.098 69.0153 105.029 67.7791V58.6553C105.029 53.5983 101.299 49.3076 96.5376 48.8948C94.8597 48.7535 93.1741 49.0625 91.678 49.7797C91.2753 45.1137 87.7073 41.2897 83.2231 40.901C83.1091 40.8901 82.9999 40.9119 82.8851 40.9065L93.5846 28.4199C96.2528 25.7501 100.183 24.6654 103.847 25.5769L111.513 27.4951C112.419 27.7246 113.38 27.4553 114.041 26.7943L118.982 21.8489L141.925 45.4602C139.462 48.3141 134.414 54.946 135.99 59.6706ZM147.533 43.5919L120.098 15.3574L126.385 8.5788L154.494 36.7071L147.533 43.5919Z" fill="url(#paint0_linear_123_445)"/>
</g>
<defs>
<linearGradient id="paint0_linear_123_445" x1="81.0569" y1="2.07446" x2="81.0569" y2="159.291" gradientUnits="userSpaceOnUse">
<stop stop-color="#B76EC7"/>
<stop offset="1" stop-color="#422848"/>
</linearGradient>
</defs>
</svg>
