<svg width="163" height="163" viewBox="0 0 163 163" fill="none" xmlns="http://www.w3.org/2000/svg">
<path d="M36.7593 61.6105C36.7593 86.3245 56.8626 106.43 81.5735 106.43C106.284 106.43 126.389 86.3245 126.389 61.6105C126.389 36.8957 106.284 16.79 81.5735 16.79C56.8626 16.79 36.7593 36.8957 36.7593 61.6105ZM81.5735 22.7664C102.99 22.7664 120.413 40.1922 120.413 61.6105C120.413 83.0296 102.99 100.454 81.5735 100.454C60.1575 100.454 42.7341 83.0296 42.7341 61.6105C42.7341 40.1922 60.1575 22.7664 81.5735 22.7664Z" fill="url(#paint0_linear_123_464)"/>
<path d="M53.9048 56.2834L65.4861 67.6946L62.821 83.7335C62.636 84.8511 63.0972 85.9756 64.0127 86.6398C64.9281 87.3055 66.1408 87.3952 67.146 86.8755L81.5734 79.3812L96.0009 86.8755C96.9975 87.3921 98.2102 87.3117 99.1327 86.6398C100.05 85.9756 100.509 84.8495 100.324 83.7335L97.6608 67.6946L109.241 56.2834C110.047 55.4897 110.335 54.309 109.985 53.2304C109.635 52.155 108.707 51.37 107.588 51.1998L91.5166 48.7798L84.2448 34.2353C83.7406 33.2239 82.7043 32.5847 81.5734 32.5847C80.4418 32.5847 79.4086 33.2239 78.9013 34.2353L71.6295 48.7798L55.5585 51.1998C54.4386 51.3676 53.5115 52.155 53.1611 53.2304C52.8099 54.309 53.1002 55.4897 53.9048 56.2834ZM74.0534 54.4596C75.0141 54.3144 75.846 53.7112 76.2807 52.841L81.5734 42.254L86.867 52.841C87.3016 53.7112 88.132 54.3144 89.0942 54.4596L100.792 56.2202L92.3618 64.5238C91.6696 65.2074 91.352 66.1845 91.5104 67.1436L93.4505 78.8162L82.9493 73.3634C82.5193 73.1403 82.0456 73.0279 81.5734 73.0279C81.1005 73.0279 80.6276 73.1403 80.196 73.3634L69.6948 78.8162L71.6341 67.1436C71.7949 66.1845 71.4765 65.2074 70.7835 64.5238L62.3551 56.2202L74.0534 54.4596Z" fill="url(#paint1_linear_123_464)"/>
<mask id="mask0_123_464" style="mask-type:luminance" maskUnits="userSpaceOnUse" x="78" y="4" width="7" height="7">
<path d="M78.5676 4.83813H84.761V10.9831H78.5676V4.83813Z" fill="white"/>
</mask>
<g mask="url(#mask0_123_464)">
<path d="M84.562 7.82632C84.562 9.47689 83.2244 10.8145 81.5738 10.8145C79.924 10.8145 78.5864 9.47689 78.5864 7.82632C78.5864 6.17576 79.924 4.83813 81.5738 4.83813C83.2244 4.83813 84.562 6.17576 84.562 7.82632Z" fill="url(#paint2_linear_123_464)"/>
</g>
<mask id="mask1_123_464" style="mask-type:luminance" maskUnits="userSpaceOnUse" x="24" y="6" width="115" height="152">
<path d="M24.8086 6.38794H138.338V157.823H24.8086V6.38794Z" fill="white"/>
</mask>
<g mask="url(#mask1_123_464)">
<path d="M67.4931 6.6005C42.36 13.0162 24.8086 35.6364 24.8086 61.6108C24.8086 77.7418 31.5904 92.9427 43.4955 103.708L25.4954 135.433C24.9171 136.454 24.9889 137.719 25.6795 138.667C26.3702 139.615 27.5517 140.072 28.7021 139.833L49.1418 135.588L56.327 155.835C56.7164 156.937 57.7146 157.708 58.8782 157.812C60.0433 157.916 61.1609 157.329 61.7384 156.312L81.5732 121.437L101.408 156.312C101.942 157.252 102.936 157.823 104.002 157.823C104.091 157.823 104.179 157.819 104.267 157.812C105.432 157.708 106.429 156.935 106.82 155.835L114.004 135.588L134.444 139.833C135.592 140.07 136.775 139.615 137.465 138.667C138.158 137.719 138.229 136.454 137.65 135.433L119.65 103.708C131.556 92.9427 138.338 77.7418 138.338 61.6108C138.338 35.6364 120.785 13.0162 95.6534 6.6005C94.0536 6.19157 92.428 7.15615 92.0198 8.75521C91.6109 10.3543 92.5762 11.9822 94.1753 12.3896C116.66 18.1303 132.364 38.371 132.364 61.6108C132.364 89.8952 109.395 112.406 81.5732 112.406C53.7321 112.406 30.7834 89.8757 30.7834 61.6108C30.7834 38.371 46.4868 18.1303 68.9704 12.3896C70.5695 11.9822 71.5348 10.3543 71.1275 8.75521C70.7185 7.15615 69.0937 6.19157 67.4931 6.6005ZM59.7733 147.681L53.9023 131.134C53.4028 129.726 51.9419 128.904 50.4794 129.208L33.9503 132.64L48.1959 107.531C56.501 113.57 66.3365 117.249 76.5638 118.158L59.7733 147.681ZM112.666 129.208C111.205 128.904 109.742 129.726 109.243 131.134L103.372 147.681L86.5819 118.158C96.8107 117.249 106.644 113.57 114.951 107.531L129.197 132.64L112.666 129.208Z" fill="url(#paint3_linear_123_464)"/>
</g>
<defs>
<linearGradient id="paint0_linear_123_464" x1="81.5739" y1="16.79" x2="81.5739" y2="106.43" gradientUnits="userSpaceOnUse">
<stop stop-color="#B76EC7"/>
<stop offset="1" stop-color="#422848"/>
</linearGradient>
<linearGradient id="paint1_linear_123_464" x1="81.573" y1="32.5847" x2="81.573" y2="87.2112" gradientUnits="userSpaceOnUse">
<stop stop-color="#B76EC7"/>
<stop offset="1" stop-color="#422848"/>
</linearGradient>
<linearGradient id="paint2_linear_123_464" x1="81.5742" y1="4.83813" x2="81.5742" y2="10.8145" gradientUnits="userSpaceOnUse">
<stop stop-color="#B76EC7"/>
<stop offset="1" stop-color="#422848"/>
</linearGradient>
<linearGradient id="paint3_linear_123_464" x1="81.5732" y1="6.50659" x2="81.5732" y2="157.824" gradientUnits="userSpaceOnUse">
<stop stop-color="#B76EC7"/>
<stop offset="1" stop-color="#422848"/>
</linearGradient>
</defs>
</svg>
