<svg width="162" height="163" viewBox="0 0 162 163" fill="none" xmlns="http://www.w3.org/2000/svg">
<mask id="mask0_123_451" style="mask-type:luminance" maskUnits="userSpaceOnUse" x="1" y="12" width="121" height="139">
<path d="M1.59814 12.0032H121.469V150.604H1.59814V12.0032Z" fill="white"/>
</mask>
<g mask="url(#mask0_123_451)">
<path d="M61.465 143.867C60.1609 143.867 58.0171 142.697 54.4631 140.76L53.3464 140.152C39.8031 132.774 8.3019 112.138 8.3019 79.9431V48.6744C8.3019 42.6059 8.3893 38.8217 9.60674 37.4513C10.8905 36.0084 14.9151 35.2381 21.3886 34.1408C33.8213 32.0368 44.0228 28.436 52.5777 23.1339L53.0022 22.867C57.4326 20.1161 59.8729 18.5982 61.4673 18.5982C63.0625 18.5982 65.5028 20.1122 69.9332 22.867L70.3593 23.1339C78.9087 28.4353 89.1102 32.0353 101.543 34.1408C108.018 35.2381 112.043 36.0084 113.325 37.4513C114.543 38.8217 114.631 42.6059 114.631 48.6744V52.6561C114.631 52.7653 114.637 52.8746 114.648 52.983C114.658 53.0915 114.674 53.2 114.695 53.3069C114.716 53.4138 114.743 53.52 114.775 53.6245C114.807 53.7291 114.843 53.8313 114.885 53.932C114.927 54.0335 114.974 54.1318 115.025 54.2286C115.077 54.3246 115.133 54.4182 115.193 54.5087C115.254 54.6 115.319 54.6875 115.388 54.7717C115.458 54.856 115.531 54.9372 115.608 55.0144C115.685 55.0917 115.767 55.1651 115.851 55.2337C115.935 55.3032 116.023 55.3688 116.114 55.4288C116.204 55.4897 116.298 55.5459 116.395 55.5974C116.491 55.6489 116.589 55.6957 116.691 55.7371C116.791 55.7792 116.894 55.8159 116.999 55.8471C117.103 55.8791 117.209 55.9057 117.317 55.9267C117.423 55.9486 117.531 55.9642 117.64 55.9751C117.749 55.9861 117.858 55.9907 117.967 55.9907C118.077 55.9907 118.185 55.9861 118.294 55.9751C118.403 55.9642 118.511 55.9486 118.618 55.9267C118.725 55.9057 118.831 55.8791 118.936 55.8471C119.04 55.8159 119.143 55.7792 119.244 55.7371C119.345 55.6957 119.443 55.6489 119.54 55.5974C119.636 55.5459 119.73 55.4897 119.821 55.4288C119.911 55.3688 119.999 55.3032 120.084 55.2337C120.168 55.1651 120.249 55.0917 120.326 55.0144C120.403 54.9372 120.476 54.856 120.546 54.7717C120.615 54.6875 120.68 54.6 120.741 54.5087C120.802 54.4182 120.858 54.3246 120.91 54.2286C120.961 54.1318 121.007 54.0335 121.049 53.932C121.091 53.8313 121.128 53.7291 121.159 53.6245C121.191 53.52 121.218 53.4138 121.239 53.3069C121.261 53.2 121.276 53.0915 121.287 52.983C121.298 52.8746 121.303 52.7653 121.303 52.6561V48.6744C121.303 32.2343 119.735 30.4589 102.657 27.5643C91.0893 25.6094 81.6744 22.3028 73.8727 17.4721L73.4497 17.2059C67.9783 13.8104 64.9627 11.939 61.465 11.939C57.9672 11.939 54.9532 13.8065 49.4802 17.2059L49.0588 17.4721C41.2555 22.3106 31.8445 25.6094 20.2742 27.5706C3.20426 30.4589 1.62939 32.2343 1.62939 48.6744V79.9431C1.62939 115.713 35.5639 138.06 50.156 146.009L51.2689 146.615C55.9045 149.15 58.4588 150.537 61.465 150.537C61.5742 150.537 61.6835 150.532 61.7919 150.521C61.9004 150.51 62.0089 150.494 62.1158 150.473C62.2227 150.452 62.3289 150.425 62.4334 150.394C62.538 150.362 62.641 150.325 62.7417 150.283C62.8424 150.242 62.9415 150.195 63.0375 150.143C63.1343 150.092 63.2279 150.036 63.3184 149.975C63.409 149.915 63.4971 149.849 63.5814 149.78C63.6657 149.711 63.7469 149.638 63.8241 149.56C63.9014 149.483 63.9748 149.402 64.0434 149.318C64.1129 149.233 64.1784 149.146 64.2385 149.055C64.2994 148.964 64.3556 148.87 64.4071 148.774C64.4586 148.678 64.5054 148.579 64.5468 148.479C64.5889 148.377 64.6256 148.275 64.6576 148.17C64.6888 148.066 64.7154 147.96 64.7372 147.853C64.7583 147.746 64.7739 147.637 64.7848 147.529C64.7957 147.42 64.8012 147.311 64.8012 147.202C64.8012 147.093 64.7957 146.984 64.7848 146.875C64.7739 146.766 64.7583 146.659 64.7372 146.552C64.7154 146.444 64.6888 146.339 64.6576 146.234C64.6256 146.13 64.5889 146.027 64.5468 145.926C64.5054 145.825 64.4586 145.726 64.4071 145.63C64.3556 145.533 64.2994 145.44 64.2385 145.349C64.1784 145.259 64.1129 145.17 64.0434 145.086C63.9748 145.002 63.9014 144.922 63.8241 144.844C63.7469 144.767 63.6657 144.694 63.5814 144.624C63.4971 144.555 63.409 144.49 63.3184 144.429C63.2279 144.368 63.1343 144.313 63.0375 144.261C62.9415 144.21 62.8424 144.163 62.7417 144.121C62.641 144.079 62.538 144.043 62.4334 144.011C62.3289 143.979 62.2227 143.952 62.1158 143.931C62.0089 143.91 61.9004 143.894 61.7919 143.884C61.6835 143.873 61.5742 143.867 61.465 143.867Z" fill="url(#paint0_linear_123_451)"/>
</g>
<path d="M86.606 66.5015L59.4072 91.3271L45.7726 78.8772C45.6915 78.8039 45.6072 78.7336 45.5198 78.6689C45.4324 78.6033 45.3418 78.5424 45.2482 78.4863C45.1545 78.4293 45.0585 78.3778 44.9602 78.331C44.8619 78.2841 44.7612 78.242 44.6582 78.2045C44.5552 78.1671 44.4514 78.1351 44.3452 78.1085C44.2391 78.082 44.1322 78.0602 44.0245 78.0438C43.916 78.0274 43.8075 78.0164 43.6991 78.0102C43.5898 78.0047 43.4806 78.0047 43.3713 78.0094C43.262 78.0141 43.1536 78.0243 43.0459 78.0406C42.9374 78.0562 42.8305 78.0765 42.7243 78.1031C42.6182 78.1288 42.5136 78.1608 42.4106 78.1967C42.3076 78.2334 42.2069 78.2748 42.1078 78.3208C42.0087 78.3676 41.9127 78.4184 41.8183 78.4745C41.7246 78.53 41.6341 78.59 41.5459 78.6548C41.4577 78.7196 41.3735 78.7891 41.2923 78.8616C41.2111 78.935 41.1331 79.0115 41.0597 79.0926C40.9864 79.173 40.9161 79.2573 40.8514 79.3447C40.7858 79.4321 40.7249 79.5226 40.668 79.6155C40.6118 79.7092 40.5595 79.8051 40.5127 79.9043C40.4658 80.0026 40.4237 80.1033 40.3862 80.2055C40.3496 80.3085 40.3168 80.4123 40.2902 80.5184C40.2629 80.6246 40.2419 80.7315 40.2247 80.8392C40.2083 80.9469 40.1974 81.0554 40.1919 81.1646C40.1857 81.2739 40.1857 81.3831 40.1903 81.4916C40.195 81.6009 40.206 81.7093 40.2216 81.8178C40.2372 81.9255 40.2575 82.0332 40.284 82.1386C40.3098 82.2447 40.341 82.3493 40.3776 82.4523C40.4143 82.5553 40.4557 82.6568 40.5017 82.7551C40.5478 82.8542 40.5993 82.951 40.6547 83.0446C40.7109 83.1383 40.771 83.2296 40.8357 83.317C40.9005 83.4052 40.9692 83.4902 41.0418 83.5714C41.1151 83.6526 41.1916 83.7298 41.2728 83.8032L57.1572 98.3118C57.3102 98.4507 57.4741 98.5748 57.6489 98.6833C57.8245 98.7925 58.0087 98.8838 58.2006 98.9587C58.3934 99.0329 58.5908 99.0898 58.7938 99.1273C58.9967 99.1655 59.2011 99.1843 59.4072 99.1843C59.614 99.1843 59.8184 99.1655 60.0213 99.1273C60.2242 99.0898 60.4217 99.0329 60.6137 98.9587C60.8064 98.8838 60.9906 98.7925 61.1654 98.6833C61.341 98.5748 61.5049 98.4507 61.6571 98.3118L91.1011 71.4267C91.2565 71.2776 91.3954 71.1145 91.5187 70.9381C91.642 70.7625 91.7473 70.576 91.8347 70.3794C91.9221 70.1827 91.99 69.9798 92.0376 69.7699C92.086 69.5599 92.1133 69.3477 92.1204 69.133C92.1266 68.9177 92.1133 68.7038 92.0782 68.4915C92.0439 68.2793 91.9893 68.0725 91.9151 67.8703C91.8402 67.669 91.7473 67.4762 91.6349 67.2921C91.5233 67.1087 91.3954 66.937 91.2502 66.7786C91.105 66.6193 90.9458 66.4758 90.7734 66.3478C90.6001 66.2198 90.4167 66.109 90.2224 66.0161C90.0281 65.924 89.8267 65.8506 89.6184 65.7968C89.41 65.7429 89.1985 65.7102 88.9839 65.6969C88.7693 65.6844 88.5555 65.6922 88.3416 65.7211C88.1286 65.7492 87.9202 65.7984 87.7165 65.867C87.512 65.9365 87.3169 66.0239 87.1304 66.1308C86.9431 66.2377 86.7683 66.361 86.606 66.5015Z" fill="#9A5CA7"/>
<path d="M99.2627 87.5305C99.2627 87.8443 99.2705 88.158 99.2853 88.4709C99.3009 88.7847 99.3243 89.0968 99.3548 89.409C99.3852 89.7211 99.4242 90.0325 99.4703 90.3423C99.5163 90.653 99.5694 90.962 99.631 91.2695C99.6919 91.577 99.7606 91.8829 99.8371 92.1872C99.9128 92.4916 99.9971 92.7936 100.088 93.0933C100.179 93.3937 100.277 93.6911 100.383 93.9869C100.489 94.2819 100.601 94.5745 100.721 94.864C100.841 95.1536 100.969 95.4408 101.103 95.7241C101.236 96.0073 101.378 96.2875 101.526 96.5646C101.673 96.8408 101.828 97.114 101.989 97.3824C102.15 97.6517 102.318 97.9162 102.493 98.1777C102.667 98.4383 102.847 98.6943 103.034 98.9464C103.221 99.1984 103.414 99.445 103.613 99.6878C103.812 99.9305 104.017 100.168 104.228 100.4C104.438 100.633 104.655 100.86 104.876 101.082C105.098 101.303 105.326 101.519 105.557 101.73C105.79 101.941 106.027 102.145 106.27 102.344C106.513 102.543 106.76 102.736 107.012 102.923C107.263 103.11 107.52 103.29 107.781 103.465C108.042 103.639 108.307 103.807 108.576 103.968C108.845 104.129 109.118 104.284 109.395 104.432C109.671 104.579 109.951 104.721 110.235 104.855C110.519 104.988 110.805 105.115 111.095 105.236C111.385 105.356 111.677 105.468 111.973 105.574C112.268 105.68 112.566 105.778 112.866 105.869C113.166 105.961 113.468 106.044 113.773 106.12C114.077 106.196 114.383 106.265 114.691 106.327C114.999 106.388 115.308 106.441 115.618 106.487C115.928 106.534 116.24 106.572 116.552 106.602C116.864 106.633 117.177 106.656 117.49 106.672C117.804 106.687 118.117 106.695 118.431 106.695C118.745 106.695 119.058 106.687 119.372 106.672C119.684 106.656 119.997 106.633 120.31 106.602C120.622 106.572 120.933 106.534 121.244 106.487C121.554 106.441 121.863 106.388 122.171 106.327C122.478 106.266 122.784 106.197 123.089 106.121C123.393 106.044 123.695 105.961 123.995 105.87C124.296 105.779 124.593 105.681 124.889 105.575C125.184 105.469 125.477 105.357 125.767 105.236C126.056 105.116 126.343 104.989 126.627 104.856C126.91 104.721 127.19 104.58 127.467 104.433C127.744 104.284 128.017 104.13 128.286 103.969C128.555 103.808 128.82 103.64 129.081 103.466C129.342 103.292 129.598 103.111 129.85 102.924C130.102 102.738 130.35 102.544 130.591 102.346C130.834 102.147 131.072 101.942 131.304 101.731C131.537 101.521 131.764 101.304 131.986 101.082C132.208 100.861 132.424 100.634 132.635 100.402C132.845 100.169 133.05 99.932 133.249 99.6893C133.449 99.4466 133.641 99.2 133.828 98.9479C134.015 98.6959 134.195 98.4399 134.369 98.1784C134.544 97.9178 134.712 97.6532 134.873 97.384C135.034 97.1155 135.189 96.8424 135.337 96.5661C135.485 96.2891 135.626 96.0089 135.76 95.7256C135.894 95.4423 136.022 95.1559 136.141 94.8656C136.261 94.5761 136.374 94.2834 136.48 93.9884C136.586 93.6926 136.684 93.3953 136.775 93.0949C136.866 92.7952 136.95 92.4932 137.026 92.1888C137.102 91.8844 137.171 91.5785 137.232 91.271C137.294 90.9636 137.347 90.6545 137.394 90.3447C137.44 90.0341 137.478 89.7227 137.508 89.4105C137.539 89.0984 137.562 88.7862 137.578 88.4725C137.593 88.1595 137.6 87.8458 137.6 87.5329C137.6 87.2192 137.593 86.9054 137.578 86.5925C137.562 86.2788 137.539 85.9666 137.508 85.6544C137.478 85.3423 137.44 85.0309 137.394 84.7211C137.347 84.4105 137.294 84.1014 137.233 83.7939C137.171 83.4865 137.102 83.1805 137.026 82.8762C136.95 82.5718 136.867 82.2698 136.775 81.9701C136.684 81.6697 136.586 81.3723 136.48 81.0765C136.374 80.7816 136.262 80.4889 136.142 80.1994C136.022 79.9091 135.894 79.6226 135.76 79.3394C135.626 79.0561 135.485 78.7759 135.337 78.4989C135.19 78.2226 135.035 77.9494 134.874 77.681C134.712 77.4117 134.544 77.1472 134.37 76.8857C134.196 76.6251 134.015 76.3691 133.829 76.117C133.641 75.865 133.449 75.6184 133.25 75.3757C133.051 75.1329 132.846 74.8957 132.635 74.6631C132.425 74.4314 132.208 74.2043 131.986 73.9818C131.764 73.7602 131.537 73.544 131.305 73.3333C131.072 73.1234 130.835 72.9181 130.592 72.7191C130.35 72.5201 130.103 72.3274 129.851 72.1409C129.599 71.9536 129.342 71.7733 129.081 71.5993C128.821 71.4244 128.555 71.2574 128.287 71.0959C128.018 70.9343 127.745 70.7798 127.468 70.6323C127.191 70.4841 126.911 70.3436 126.628 70.2093C126.344 70.0751 126.057 69.9479 125.768 69.8285C125.477 69.7083 125.185 69.5952 124.89 69.4898C124.594 69.3837 124.297 69.2853 123.996 69.1948C123.696 69.1035 123.394 69.02 123.089 68.9435C122.785 68.8678 122.479 68.7991 122.172 68.7375C121.863 68.6766 121.555 68.6228 121.244 68.5767C120.934 68.5307 120.623 68.4924 120.31 68.462C119.998 68.4308 119.685 68.4082 119.372 68.3926C119.059 68.3769 118.746 68.3691 118.432 68.3691C118.118 68.3699 117.804 68.3777 117.492 68.3933C117.179 68.4089 116.866 68.4324 116.553 68.4636C116.241 68.4948 115.931 68.533 115.62 68.5799C115.31 68.6259 115.001 68.6797 114.694 68.7414C114.386 68.8023 114.08 68.8717 113.776 68.9482C113.472 69.0239 113.17 69.1082 112.87 69.1995C112.569 69.2908 112.272 69.3891 111.977 69.4945C111.681 69.6006 111.389 69.7138 111.1 69.834C110.81 69.9542 110.523 70.0806 110.24 70.2148C109.957 70.349 109.676 70.4903 109.4 70.6386C109.123 70.7861 108.851 70.9406 108.582 71.1021C108.313 71.2629 108.048 71.4307 107.787 71.6055C107.526 71.7795 107.27 71.9598 107.018 72.1471C106.766 72.3336 106.52 72.5264 106.277 72.7254C106.035 72.9244 105.797 73.1289 105.565 73.3396C105.333 73.5503 105.106 73.7665 104.884 73.9881C104.662 74.2097 104.446 74.4368 104.235 74.6686C104.025 74.9012 103.82 75.1384 103.621 75.3803C103.421 75.623 103.229 75.8697 103.042 76.1217C102.855 76.3738 102.675 76.6298 102.501 76.8904C102.326 77.1511 102.158 77.4156 101.996 77.6841C101.836 77.9533 101.681 78.2257 101.533 78.502C101.385 78.779 101.244 79.0584 101.11 79.3417C100.976 79.625 100.848 79.9114 100.728 80.2009C100.607 80.4905 100.495 80.7831 100.389 81.0781C100.283 81.3731 100.184 81.6712 100.093 81.9709C100.002 82.2706 99.9182 82.5726 99.8418 82.877C99.7653 83.1805 99.6966 83.4865 99.635 83.7939C99.5733 84.1014 99.5194 84.4105 99.4734 84.7203C99.4266 85.0301 99.3883 85.3415 99.3571 85.6529C99.3259 85.965 99.3025 86.278 99.2869 86.5909C99.2713 86.9039 99.2627 87.2176 99.2627 87.5305ZM130.927 87.5305C130.927 87.9402 130.908 88.3484 130.867 88.755C130.827 89.1624 130.767 89.5666 130.687 89.9678C130.608 90.3697 130.508 90.7661 130.389 91.1571C130.271 91.5489 130.133 91.9336 129.976 92.3121C129.82 92.6898 129.645 93.059 129.452 93.4203C129.259 93.7808 129.049 94.132 128.821 94.4715C128.594 94.8118 128.351 95.1403 128.091 95.4564C127.832 95.7732 127.557 96.076 127.268 96.3648C126.978 96.6543 126.675 96.929 126.359 97.1889C126.042 97.448 125.714 97.6915 125.374 97.9193C125.033 98.1464 124.683 98.3564 124.322 98.5491C123.961 98.7419 123.591 98.9167 123.213 99.0736C122.835 99.2304 122.45 99.3678 122.058 99.4864C121.667 99.6058 121.27 99.7049 120.869 99.7845C120.467 99.8649 120.063 99.9242 119.656 99.9648C119.248 100.005 118.84 100.025 118.431 100.025C118.021 100.025 117.613 100.005 117.206 99.9648C116.798 99.925 116.394 99.8649 115.992 99.7845C115.591 99.7049 115.195 99.6058 114.803 99.4872C114.411 99.3686 114.026 99.2304 113.648 99.0744C113.27 98.9175 112.9 98.7427 112.54 98.5499C112.178 98.3572 111.828 98.1464 111.488 97.9193C111.148 97.6922 110.819 97.4488 110.502 97.1889C110.186 96.9298 109.883 96.6551 109.594 96.3655C109.304 96.0768 109.03 95.774 108.77 95.4572C108.511 95.1411 108.267 94.8125 108.039 94.4723C107.812 94.132 107.602 93.7816 107.409 93.4211C107.216 93.0605 107.041 92.6906 106.885 92.3129C106.728 91.9344 106.59 91.5496 106.471 91.1587C106.353 90.7669 106.254 90.3704 106.173 89.9693C106.094 89.5674 106.034 89.1632 105.994 88.7566C105.953 88.3492 105.934 87.941 105.934 87.5313C105.934 87.1224 105.954 86.7142 105.994 86.3069C106.034 85.9003 106.094 85.496 106.174 85.0941C106.254 84.693 106.353 84.2965 106.472 83.9048C106.591 83.5138 106.728 83.129 106.885 82.7505C107.042 82.3728 107.217 82.0029 107.409 81.6423C107.602 81.2818 107.813 80.9314 108.04 80.5911C108.267 80.2509 108.511 79.9223 108.77 79.6063C109.03 79.2902 109.305 78.9874 109.595 78.6979C109.884 78.4083 110.187 78.1344 110.503 77.8745C110.82 77.6147 111.148 77.3712 111.489 77.1441C111.829 76.917 112.179 76.707 112.541 76.5143C112.901 76.3215 113.271 76.1467 113.649 75.9898C114.027 75.833 114.412 75.6956 114.804 75.577C115.196 75.4584 115.592 75.3593 115.994 75.2789C116.395 75.1993 116.799 75.1392 117.207 75.0994C117.614 75.0596 118.022 75.0393 118.432 75.0393C118.841 75.0401 119.249 75.0604 119.656 75.101C120.063 75.1415 120.467 75.2016 120.868 75.282C121.269 75.3616 121.666 75.4615 122.058 75.5809C122.449 75.6995 122.833 75.8377 123.211 75.9937C123.589 76.1506 123.959 76.3254 124.319 76.519C124.68 76.7117 125.03 76.9216 125.371 77.1487C125.711 77.3766 126.039 77.6201 126.355 77.8792C126.671 78.1391 126.973 78.413 127.263 78.7025C127.553 78.9913 127.826 79.2941 128.086 79.6102C128.346 79.9262 128.59 80.2548 128.817 80.5943C129.044 80.9345 129.255 81.2849 129.447 81.6455C129.64 82.006 129.816 82.3751 129.972 82.7529C130.129 83.1306 130.267 83.5153 130.386 83.9063C130.505 84.2973 130.605 84.6937 130.684 85.0949C130.765 85.496 130.826 85.9003 130.865 86.3069C130.906 86.7134 130.927 87.1216 130.927 87.5305Z" fill="url(#paint1_linear_123_451)"/>
<mask id="mask1_123_451" style="mask-type:luminance" maskUnits="userSpaceOnUse" x="77" y="111" width="83" height="40">
<path d="M77.3164 111.875H159.628V150.604H77.3164V111.875Z" fill="white"/>
</mask>
<g mask="url(#mask1_123_451)">
<path d="M158.418 139.685L158.087 138.803C148.284 112.546 147.187 111.801 118.753 111.946L117.241 111.954C89.1799 112.099 87.7759 113.001 79.7057 136.091L78.4203 139.755C77.4714 142.444 76.6012 145.515 78.308 147.926C80.0147 150.339 83.1559 150.538 85.9669 150.538H150.882C153.728 150.538 156.907 150.331 158.622 147.869C160.337 145.408 159.412 142.35 158.418 139.685ZM150.882 143.867H85.9669C85.1366 143.867 84.552 143.837 84.1454 143.798C84.2461 143.386 84.4201 142.8 84.7136 141.973L86.0036 138.291C89.5498 128.153 91.3283 123.06 94.6536 120.95C98.1421 118.729 104.938 118.692 117.276 118.628H118.789C131.537 118.559 137.938 118.526 141.608 121.03C145.278 123.534 147.457 129.413 151.84 141.152L152.17 142.034C152.394 142.616 152.587 143.206 152.752 143.807C152.129 143.859 151.506 143.879 150.882 143.867Z" fill="url(#paint2_linear_123_451)"/>
</g>
<defs>
<linearGradient id="paint0_linear_123_451" x1="61.4661" y1="11.939" x2="61.4661" y2="150.537" gradientUnits="userSpaceOnUse">
<stop stop-color="#B76EC7"/>
<stop offset="1" stop-color="#422848"/>
</linearGradient>
<linearGradient id="paint1_linear_123_451" x1="118.432" y1="68.3691" x2="118.432" y2="106.695" gradientUnits="userSpaceOnUse">
<stop stop-color="#B76EC7"/>
<stop offset="1" stop-color="#422848"/>
</linearGradient>
<linearGradient id="paint2_linear_123_451" x1="118.457" y1="111.934" x2="118.457" y2="150.538" gradientUnits="userSpaceOnUse">
<stop stop-color="#B76EC7"/>
<stop offset="1" stop-color="#422848"/>
</linearGradient>
</defs>
</svg>
