<svg width="220" height="93" viewBox="0 0 220 93" fill="none" xmlns="http://www.w3.org/2000/svg">
<path d="M29.2889 35.9297L26.5369 44.7178L38.5931 43.9809L44.8134 60.2765L21.4993 60.1446L21.4561 60.2765H0L23.7531 0.00439453H45.2933L68.7895 60.2765H46.7398L39.0753 35.9297L34.2242 21.0329L29.2889 35.9297Z" fill="white"/>
<path d="M90.1639 26.2231L91.1009 60.2766H72.2012V0H98.679L109.5 32.2114C109.546 32.3455 109.673 32.4365 109.814 32.4365C109.926 32.4365 110.023 32.3637 110.053 32.2569L119.45 0H146.779V60.2766H127.113L127.704 26.6779C127.706 26.5142 127.588 26.3732 127.427 26.3459C127.295 26.3231 127.167 26.4004 127.124 26.5278L115.962 60.2766H101.658L90.5914 26.2231C90.5892 26.2231 90.1639 26.2231 90.1639 26.2231Z" fill="white"/>
<path d="M179.477 35.9297L176.729 44.6996L188.528 43.9809L194.749 60.2765L171.689 60.1446L171.646 60.2765H150.19L173.943 0.00439453H195.483L218.982 60.2765H196.927L189.27 35.9297L184.414 21.0329L179.477 35.9297Z" fill="white"/>
<path d="M1.79305 87.4424H0.350814L5.15306 75.7486H6.64207L11.4365 87.4424H9.99429L8.72356 84.2851H3.06377L1.79305 87.4424ZM3.54712 83.0689H8.24022L5.89367 77.2298L3.54712 83.0689ZM19.5208 87.4424H18.4216L18.3359 86.4133C18.05 86.7823 17.6862 87.0734 17.2444 87.2865C16.8027 87.4944 16.3089 87.5983 15.7632 87.5983C15.2019 87.5983 14.7004 87.4892 14.2586 87.2709C13.8169 87.0474 13.4686 86.7434 13.214 86.3588C12.9645 85.9742 12.8398 85.5376 12.8398 85.0491C12.8398 84.5345 12.9749 84.0824 13.2452 83.6926C13.5206 83.2976 13.8922 82.9883 14.36 82.7649C14.8329 82.5414 15.3682 82.4296 15.9659 82.4296C16.3557 82.4296 16.7533 82.479 17.1587 82.5778C17.5641 82.6713 17.9253 82.8012 18.2423 82.9676V82.6401C18.2423 82.2244 18.1384 81.8709 17.9305 81.5799C17.7226 81.2837 17.4445 81.0576 17.0963 80.9017C16.7481 80.7405 16.3635 80.66 15.9425 80.66C15.5787 80.66 15.2071 80.7276 14.8277 80.8627C14.4483 80.9926 14.0845 81.1953 13.7363 81.4708L13.3153 80.3715C13.7675 80.0805 14.243 79.8622 14.742 79.7167C15.2409 79.566 15.7346 79.4906 16.2232 79.4906C16.8988 79.4906 17.4809 79.6283 17.9695 79.9038C18.4632 80.174 18.8452 80.5612 19.1154 81.0654C19.3857 81.5643 19.5208 82.1568 19.5208 82.8428V87.4424ZM15.9893 86.4289C16.3895 86.4289 16.7559 86.3458 17.0885 86.1795C17.4211 86.0131 17.6914 85.7741 17.8993 85.4622C18.1072 85.1452 18.2215 84.771 18.2423 84.3396V84.2071C17.9565 83.9836 17.6342 83.8121 17.2756 83.6926C16.9222 83.5678 16.561 83.5055 16.192 83.5055C15.6151 83.5055 15.1318 83.6458 14.742 83.9265C14.3574 84.2071 14.1651 84.5631 14.1651 84.9945C14.1651 85.2647 14.243 85.509 14.3989 85.7273C14.5601 85.9456 14.7783 86.1171 15.0538 86.2418C15.3293 86.3666 15.6411 86.4289 15.9893 86.4289ZM29.0863 87.4424H27.8078V83.0923C27.8078 82.3543 27.5973 81.7644 27.1764 81.3226C26.7554 80.8809 26.1967 80.66 25.5002 80.66C24.7778 80.66 24.1905 80.8991 23.7384 81.3772C23.2914 81.8502 23.0679 82.4738 23.0679 83.2482V87.4424H21.7894V79.6465H22.9042L22.951 80.9095C23.2369 80.4521 23.6137 80.1013 24.0814 79.857C24.5492 79.6127 25.1001 79.4906 25.7341 79.4906C26.7684 79.4906 27.5843 79.8024 28.182 80.4261C28.7849 81.0498 29.0863 81.9047 29.0863 82.9909V87.4424ZM38.4102 87.4424H37.2876L37.2408 86.1795C36.955 86.6368 36.5782 86.9876 36.1104 87.2319C35.6479 87.4762 35.0995 87.5983 34.4655 87.5983C33.4312 87.5983 32.6127 87.2865 32.0098 86.6628C31.4121 86.0339 31.1133 85.1764 31.1133 84.0902V79.6465H32.3918V83.9966C32.3918 84.7346 32.5997 85.3245 33.0155 85.7663C33.4364 86.208 33.9951 86.4289 34.6916 86.4289C35.4192 86.4289 36.0065 86.1898 36.4534 85.7117C36.9056 85.2336 37.1317 84.6099 37.1317 83.8407V79.6465H38.4102V87.4424ZM46.362 87.6763C45.4836 87.6763 44.6729 87.5255 43.9297 87.2241C43.1916 86.9227 42.5498 86.4991 42.0041 85.9534C41.4584 85.4025 41.0348 84.758 40.7334 84.02C40.4319 83.2768 40.2812 82.4686 40.2812 81.5955C40.2812 80.7172 40.4319 79.909 40.7334 79.171C41.0348 78.4278 41.4584 77.7833 42.0041 77.2376C42.5498 76.6919 43.1916 76.2683 43.9297 75.9669C44.6729 75.6654 45.4836 75.5147 46.362 75.5147C47.2403 75.5147 48.0485 75.6654 48.7865 75.9669C49.5245 76.2683 50.1663 76.6919 50.7121 77.2376C51.2578 77.7833 51.6813 78.4278 51.9828 79.171C52.2842 79.909 52.4349 80.7172 52.4349 81.5955C52.4349 82.4686 52.2842 83.2768 51.9828 84.02C51.6813 84.758 51.2578 85.4025 50.7121 85.9534C50.1663 86.4991 49.5245 86.9227 48.7865 87.2241C48.0485 87.5255 47.2403 87.6763 46.362 87.6763ZM46.362 86.4601C47.0324 86.4601 47.6509 86.338 48.2174 86.0937C48.7891 85.8494 49.2854 85.509 49.7064 85.0724C50.1274 84.6307 50.4522 84.1162 50.6809 83.5289C50.9147 82.9364 51.0317 82.2919 51.0317 81.5955C51.0317 80.8991 50.9147 80.2546 50.6809 79.6621C50.4522 79.0696 50.1274 78.5551 49.7064 78.1185C49.2854 77.6768 48.7891 77.3364 48.2174 77.0973C47.6509 76.853 47.0324 76.7309 46.362 76.7309C45.6915 76.7309 45.0704 76.853 44.4988 77.0973C43.9323 77.3364 43.4385 77.6768 43.0175 78.1185C42.5966 78.5551 42.2691 79.0696 42.0353 79.6621C41.8014 80.2546 41.6844 80.8991 41.6844 81.5955C41.6844 82.2919 41.8014 82.9364 42.0353 83.5289C42.2691 84.1213 42.5966 84.6385 43.0175 85.0802C43.4385 85.5168 43.9323 85.8572 44.4988 86.1015C45.0704 86.3406 45.6915 86.4601 46.362 86.4601ZM55.6702 87.4424H54.3137V75.4368H55.6702V87.4424ZM65.2279 87.4424H64.1053L64.0586 86.1795C63.7727 86.6368 63.3959 86.9876 62.9282 87.2319C62.4656 87.4762 61.9173 87.5983 61.2832 87.5983C60.249 87.5983 59.4304 87.2865 58.8275 86.6628C58.2299 86.0339 57.931 85.1764 57.931 84.0902V79.6465H59.2095V83.9966C59.2095 84.7346 59.4174 85.3245 59.8332 85.7663C60.2542 86.208 60.8129 86.4289 61.5093 86.4289C62.2369 86.4289 62.8242 86.1898 63.2712 85.7117C63.7233 85.2336 63.9494 84.6099 63.9494 83.8407V79.6465H65.2279V87.4424ZM75.8381 87.4424H74.3569L72.595 81.4863L70.8332 87.4424H69.3519L66.8651 79.6465H68.2215L70.0848 85.8832L71.9947 79.6465H73.1953L75.1053 85.8832L76.9763 79.6465H78.3328L75.8381 87.4424ZM85.9571 87.4424H84.8579L84.7721 86.4133C84.4863 86.7823 84.1225 87.0734 83.6807 87.2865C83.239 87.4944 82.7452 87.5983 82.1995 87.5983C81.6382 87.5983 81.1367 87.4892 80.6949 87.2709C80.2532 87.0474 79.9049 86.7434 79.6503 86.3588C79.4008 85.9742 79.2761 85.5376 79.2761 85.0491C79.2761 84.5345 79.4112 84.0824 79.6815 83.6926C79.9569 83.2976 80.3285 82.9883 80.7963 82.7649C81.2692 82.5414 81.8045 82.4296 82.4022 82.4296C82.792 82.4296 83.1896 82.479 83.595 82.5778C84.0004 82.6713 84.3616 82.8012 84.6786 82.9676V82.6401C84.6786 82.2244 84.5747 81.8709 84.3668 81.5799C84.1589 81.2837 83.8808 81.0576 83.5326 80.9017C83.1844 80.7405 82.7998 80.66 82.3788 80.66C82.015 80.66 81.6434 80.7276 81.264 80.8627C80.8846 80.9926 80.5208 81.1953 80.1726 81.4708L79.7516 80.3715C80.2038 80.0805 80.6793 79.8622 81.1783 79.7167C81.6772 79.566 82.1709 79.4906 82.6595 79.4906C83.3351 79.4906 83.9172 79.6283 84.4057 79.9038C84.8995 80.174 85.2815 80.5612 85.5517 81.0654C85.822 81.5643 85.9571 82.1568 85.9571 82.8428V87.4424ZM82.4256 86.4289C82.8258 86.4289 83.1922 86.3458 83.5248 86.1795C83.8574 86.0131 84.1277 85.7741 84.3356 85.4622C84.5435 85.1452 84.6578 84.771 84.6786 84.3396V84.2071C84.3928 83.9836 84.0705 83.8121 83.7119 83.6926C83.3585 83.5678 82.9973 83.5055 82.6283 83.5055C82.0514 83.5055 81.5681 83.6458 81.1783 83.9265C80.7937 84.2071 80.6014 84.5631 80.6014 84.9945C80.6014 85.2647 80.6793 85.509 80.8352 85.7273C80.9964 85.9456 81.2146 86.1171 81.4901 86.2418C81.7655 86.3666 82.0774 86.4289 82.4256 86.4289ZM89.5042 91.3403H88.2257V79.6465H89.3639L89.4263 80.7847C89.7901 80.3845 90.2293 80.0701 90.7438 79.8414C91.2583 79.6075 91.8222 79.4906 92.4355 79.4906C93.1995 79.4906 93.8829 79.6673 94.4858 80.0207C95.0939 80.3741 95.572 80.8575 95.9202 81.4708C96.2736 82.0788 96.4503 82.7701 96.4503 83.5445C96.4503 84.3136 96.2736 85.0049 95.9202 85.6182C95.572 86.2314 95.0939 86.7148 94.4858 87.0682C93.8829 87.4216 93.1995 87.5983 92.4355 87.5983C91.8482 87.5983 91.3025 87.4918 90.7983 87.2787C90.2994 87.0656 89.868 86.7693 89.5042 86.3899V91.3403ZM92.3341 86.4289C92.8798 86.4289 93.3632 86.3068 93.7842 86.0625C94.2051 85.813 94.5326 85.47 94.7664 85.0335C95.0055 84.5969 95.125 84.098 95.125 83.5367C95.125 82.9702 95.0055 82.4712 94.7664 82.0399C94.5274 81.6033 94.1973 81.2603 93.7764 81.0108C93.3606 80.7613 92.8824 80.6366 92.3419 80.6366C91.8274 80.6366 91.3622 80.7509 90.9465 80.9796C90.5359 81.2083 90.2033 81.5227 89.9486 81.9229C89.6939 82.3179 89.5458 82.7701 89.5042 83.2794V83.8095C89.5458 84.3188 89.6913 84.771 89.9408 85.166C90.1903 85.561 90.5203 85.8702 90.9309 86.0937C91.3467 86.3172 91.8144 86.4289 92.3341 86.4289ZM101.713 87.5983C100.938 87.5983 100.242 87.4216 99.6233 87.0682C99.0048 86.7148 98.5162 86.234 98.1576 85.6259C97.8042 85.0127 97.6275 84.3188 97.6275 83.5445C97.6275 82.7753 97.8042 82.0866 98.1576 81.4786C98.5162 80.8653 99.0048 80.3819 99.6233 80.0285C100.242 79.6699 100.938 79.4906 101.713 79.4906C102.487 79.4906 103.181 79.6699 103.794 80.0285C104.407 80.3819 104.891 80.8653 105.244 81.4786C105.597 82.0866 105.774 82.7753 105.774 83.5445C105.774 84.3188 105.597 85.0127 105.244 85.6259C104.891 86.234 104.407 86.7148 103.794 87.0682C103.181 87.4216 102.487 87.5983 101.713 87.5983ZM101.705 86.4445C102.23 86.4445 102.7 86.3172 103.116 86.0625C103.532 85.8079 103.859 85.4622 104.098 85.0257C104.342 84.5891 104.464 84.0928 104.464 83.5367C104.464 82.9909 104.342 82.4998 104.098 82.0632C103.859 81.6267 103.532 81.2811 103.116 81.0264C102.7 80.7717 102.23 80.6444 101.705 80.6444C101.18 80.6444 100.707 80.7717 100.286 81.0264C99.8701 81.2811 99.5401 81.6267 99.2958 82.0632C99.0568 82.4998 98.9372 82.9909 98.9372 83.5367C98.9372 84.0928 99.0568 84.5891 99.2958 85.0257C99.5401 85.4622 99.8701 85.8079 100.286 86.0625C100.707 86.3172 101.18 86.4445 101.705 86.4445ZM123.253 87.4424H121.88V77.6742L117.975 85.4778H116.735L112.845 77.7209V87.4424H111.473V75.7486H113.243L117.359 84.0356L121.459 75.7486H123.253V87.4424ZM126.347 77.183C126.129 77.183 125.945 77.1077 125.794 76.957C125.648 76.801 125.576 76.6139 125.576 76.3957C125.576 76.1826 125.648 76.0007 125.794 75.8499C125.945 75.6992 126.129 75.6239 126.347 75.6239C126.571 75.6239 126.758 75.6992 126.909 75.8499C127.059 76.0007 127.135 76.1826 127.135 76.3957C127.135 76.6139 127.059 76.801 126.909 76.957C126.758 77.1077 126.571 77.183 126.347 77.183ZM126.987 87.4424H125.708V79.6465H126.987V87.4424ZM135.929 86.3198C135.549 86.7304 135.1 87.0474 134.58 87.2709C134.06 87.4892 133.501 87.5983 132.904 87.5983C132.129 87.5983 131.433 87.4216 130.814 87.0682C130.201 86.7148 129.715 86.2314 129.357 85.6182C129.003 85.0049 128.827 84.3136 128.827 83.5445C128.827 82.7701 129.003 82.0788 129.357 81.4708C129.715 80.8575 130.201 80.3741 130.814 80.0207C131.433 79.6673 132.129 79.4906 132.904 79.4906C133.496 79.4906 134.052 79.5998 134.572 79.818C135.092 80.0363 135.541 80.3508 135.921 80.7613L135.157 81.5643C134.881 81.2733 134.551 81.0498 134.167 80.8939C133.787 80.7379 133.385 80.66 132.958 80.66C132.413 80.66 131.927 80.7847 131.501 81.0342C131.08 81.2785 130.747 81.6163 130.503 82.0476C130.264 82.479 130.144 82.9754 130.144 83.5367C130.144 84.098 130.264 84.5969 130.503 85.0335C130.747 85.47 131.08 85.813 131.501 86.0625C131.927 86.3068 132.413 86.4289 132.958 86.4289C133.385 86.4289 133.79 86.351 134.174 86.195C134.559 86.0339 134.887 85.8105 135.157 85.5246L135.929 86.3198ZM137.729 87.4424V75.7486H139.008V80.8159C139.595 79.9324 140.505 79.4906 141.736 79.4906C142.771 79.4906 143.576 79.7998 144.153 80.4183C144.735 81.0316 145.026 81.8891 145.026 82.9909V87.4424H143.748V83.2872C143.748 82.4504 143.54 81.8008 143.124 81.3382C142.714 80.8705 142.139 80.6366 141.401 80.6366C140.658 80.6366 140.073 80.8731 139.647 81.346C139.221 81.819 139.008 82.466 139.008 83.2872V87.4424H137.729ZM153.578 87.4424H152.479L152.393 86.4133C152.108 86.7823 151.744 87.0734 151.302 87.2865C150.86 87.4944 150.366 87.5983 149.821 87.5983C149.259 87.5983 148.758 87.4892 148.316 87.2709C147.874 87.0474 147.526 86.7434 147.272 86.3588C147.022 85.9742 146.897 85.5376 146.897 85.0491C146.897 84.5345 147.032 84.0824 147.303 83.6926C147.578 83.2976 147.95 82.9883 148.418 82.7649C148.89 82.5414 149.426 82.4296 150.023 82.4296C150.413 82.4296 150.811 82.479 151.216 82.5778C151.622 82.6713 151.983 82.8012 152.3 82.9676V82.6401C152.3 82.2244 152.196 81.8709 151.988 81.5799C151.78 81.2837 151.502 81.0576 151.154 80.9017C150.806 80.7405 150.421 80.66 150 80.66C149.636 80.66 149.265 80.7276 148.885 80.8627C148.506 80.9926 148.142 81.1953 147.794 81.4708L147.373 80.3715C147.825 80.0805 148.301 79.8622 148.8 79.7167C149.298 79.566 149.792 79.4906 150.281 79.4906C150.956 79.4906 151.538 79.6283 152.027 79.9038C152.521 80.174 152.903 80.5612 153.173 81.0654C153.443 81.5643 153.578 82.1568 153.578 82.8428V87.4424ZM150.047 86.4289C150.447 86.4289 150.813 86.3458 151.146 86.1795C151.479 86.0131 151.749 85.7741 151.957 85.4622C152.165 85.1452 152.279 84.771 152.3 84.3396V84.2071C152.014 83.9836 151.692 83.8121 151.333 83.6926C150.98 83.5678 150.619 83.5055 150.25 83.5055C149.673 83.5055 149.189 83.6458 148.8 83.9265C148.415 84.2071 148.223 84.5631 148.223 84.9945C148.223 85.2647 148.301 85.509 148.457 85.7273C148.618 85.9456 148.836 86.1171 149.111 86.2418C149.387 86.3666 149.699 86.4289 150.047 86.4289ZM162.684 86.4835C161.717 87.2267 160.652 87.5983 159.488 87.5983C158.677 87.5983 157.949 87.4164 157.305 87.0526C156.66 86.6888 156.151 86.195 155.777 85.5714C155.408 84.9425 155.223 84.2331 155.223 83.4431C155.223 82.6843 155.395 82.0087 155.738 81.4162C156.081 80.8185 156.551 80.3482 157.149 80.0051C157.747 79.6621 158.425 79.4906 159.184 79.4906C159.963 79.4906 160.649 79.6777 161.242 80.0519C161.839 80.4261 162.305 80.9458 162.637 81.6111C162.97 82.2763 163.136 83.0455 163.136 83.9187V84.1681H156.611C156.705 84.6255 156.892 85.0231 157.172 85.3609C157.458 85.6987 157.812 85.9612 158.233 86.1483C158.653 86.3354 159.124 86.4289 159.644 86.4289C160.537 86.4289 161.353 86.1353 162.091 85.548L162.684 86.4835ZM156.564 83.0767H161.928C161.871 82.5934 161.72 82.1724 161.476 81.8138C161.237 81.45 160.925 81.1667 160.54 80.964C160.161 80.7613 159.732 80.66 159.254 80.66C158.77 80.66 158.334 80.7613 157.944 80.964C157.559 81.1667 157.245 81.45 157.001 81.8138C156.762 82.1724 156.616 82.5934 156.564 83.0767ZM166.293 87.4424H164.937V75.4368H166.293V87.4424ZM174.947 84.02H168.71V83.0143H174.947V84.02ZM177.948 87.4424H176.506L181.308 75.7486H182.797L187.592 87.4424H186.149L184.879 84.2851H179.219L177.948 87.4424ZM179.702 83.0689H184.395L182.049 77.2298L179.702 83.0689ZM191.232 91.3403H189.837L191.474 87.38L187.748 79.6465H189.159L192.09 85.9066L194.678 79.6465H196.066L191.232 91.3403ZM204.548 86.4835C203.581 87.2267 202.516 87.5983 201.351 87.5983C200.541 87.5983 199.813 87.4164 199.169 87.0526C198.524 86.6888 198.015 86.195 197.641 85.5714C197.272 84.9425 197.087 84.2331 197.087 83.4431C197.087 82.6843 197.259 82.0087 197.602 81.4162C197.945 80.8185 198.415 80.3482 199.013 80.0051C199.61 79.6621 200.289 79.4906 201.047 79.4906C201.827 79.4906 202.513 79.6777 203.105 80.0519C203.703 80.4261 204.168 80.9458 204.501 81.6111C204.834 82.2763 205 83.0455 205 83.9187V84.1681H198.475C198.568 84.6255 198.755 85.0231 199.036 85.3609C199.322 85.6987 199.675 85.9612 200.096 86.1483C200.517 86.3354 200.988 86.4289 201.507 86.4289C202.401 86.4289 203.217 86.1353 203.955 85.548L204.548 86.4835ZM198.428 83.0767H203.792C203.734 82.5934 203.584 82.1724 203.339 81.8138C203.1 81.45 202.788 81.1667 202.404 80.964C202.024 80.7613 201.596 80.66 201.118 80.66C200.634 80.66 200.198 80.7613 199.808 80.964C199.423 81.1667 199.109 81.45 198.865 81.8138C198.625 82.1724 198.48 82.5934 198.428 83.0767ZM214.098 87.4424H212.819V83.0923C212.819 82.3543 212.609 81.7644 212.188 81.3226C211.767 80.8809 211.208 80.66 210.512 80.66C209.789 80.66 209.202 80.8991 208.75 81.3772C208.303 81.8502 208.079 82.4738 208.079 83.2482V87.4424H206.801V79.6465H207.916L207.962 80.9095C208.248 80.4521 208.625 80.1013 209.093 79.857C209.56 79.6127 210.111 79.4906 210.745 79.4906C211.78 79.4906 212.596 79.8024 213.193 80.4261C213.796 81.0498 214.098 81.9047 214.098 82.9909V87.4424ZM217.029 77.183C216.811 77.183 216.626 77.1077 216.475 76.957C216.33 76.801 216.257 76.6139 216.257 76.3957C216.257 76.1826 216.33 76.0007 216.475 75.8499C216.626 75.6992 216.811 75.6239 217.029 75.6239C217.252 75.6239 217.439 75.6992 217.59 75.8499C217.741 76.0007 217.816 76.1826 217.816 76.3957C217.816 76.6139 217.741 76.801 217.59 76.957C217.439 77.1077 217.252 77.183 217.029 77.183ZM217.668 87.4424H216.39V79.6465H217.668V87.4424Z" fill="white"/>
</svg>
