<svg width="87" height="38" viewBox="0 0 87 38" fill="none" xmlns="http://www.w3.org/2000/svg">
<path d="M11.6353 15.0149L10.5421 18.506L15.3315 18.2133L17.8026 24.6869L8.5408 24.6345L8.52364 24.6869H0L9.43617 0.743164H17.9932L27.3273 24.6869H18.5679L15.5231 15.0149L13.5959 9.09694L11.6353 15.0149Z" fill="#661166"/>
<path d="M35.8185 11.1605L36.1907 24.6887H28.6826V0.743164H39.2012L43.5001 13.5395C43.5181 13.5928 43.5687 13.6289 43.6247 13.6289C43.669 13.6289 43.7079 13.6 43.7196 13.5575L47.4529 0.743164H58.3093V24.6887H50.4968L50.7317 11.3412C50.7326 11.2762 50.6856 11.2202 50.6214 11.2093C50.569 11.2003 50.5185 11.231 50.5013 11.2816L46.0669 24.6887H40.3848L35.9883 11.1605C35.9874 11.1605 35.8185 11.1605 35.8185 11.1605Z" fill="#661166"/>
<path d="M71.2989 15.0149L70.2075 18.4988L74.8949 18.2133L77.366 24.6869L68.2054 24.6345L68.1882 24.6869H59.6646L69.1007 0.743164H77.6578L86.9928 24.6869H78.2315L75.1894 15.0149L73.2605 9.09694L71.2989 15.0149Z" fill="#661166"/>
<path d="M0.712306 36.1106H0.139364L2.04711 31.4651H2.63863L4.54328 36.1106H3.97033L3.46553 34.8563H1.21711L0.712306 36.1106ZM1.40913 34.3732H3.27351L2.34132 32.0535L1.40913 34.3732ZM7.75485 36.1106H7.31817L7.28411 35.7018C7.17055 35.8484 7.02603 35.964 6.85053 36.0487C6.67503 36.1312 6.47889 36.1725 6.2621 36.1725C6.03912 36.1725 5.83988 36.1292 5.66438 36.0425C5.48889 35.9537 5.35056 35.8329 5.24939 35.6801C5.15029 35.5273 5.10073 35.3539 5.10073 35.1598C5.10073 34.9554 5.15441 34.7758 5.26178 34.6209C5.3712 34.464 5.51883 34.3412 5.70465 34.2524C5.89253 34.1636 6.10519 34.1192 6.34262 34.1192C6.49747 34.1192 6.65542 34.1388 6.81646 34.1781C6.97751 34.2152 7.121 34.2669 7.24694 34.3329V34.2029C7.24694 34.0377 7.20565 33.8973 7.12306 33.7817C7.04048 33.664 6.93002 33.5742 6.79169 33.5122C6.65335 33.4482 6.50057 33.4162 6.33333 33.4162C6.18881 33.4162 6.04118 33.4431 5.89046 33.4967C5.73974 33.5484 5.59522 33.6289 5.45689 33.7383L5.28965 33.3016C5.46927 33.186 5.65819 33.0993 5.8564 33.0415C6.0546 32.9816 6.25075 32.9517 6.44482 32.9517C6.71323 32.9517 6.94447 33.0064 7.13855 33.1158C7.33469 33.2232 7.48644 33.377 7.59381 33.5773C7.70117 33.7755 7.75485 34.0108 7.75485 34.2834V36.1106ZM6.35191 35.708C6.51089 35.708 6.65645 35.675 6.78859 35.6089C6.92073 35.5428 7.02809 35.4478 7.11068 35.324C7.19326 35.198 7.23868 35.0494 7.24694 34.878V34.8253C7.13339 34.7366 7.00538 34.6684 6.86292 34.6209C6.72252 34.5714 6.57903 34.5466 6.43244 34.5466C6.20326 34.5466 6.01125 34.6024 5.8564 34.7139C5.70361 34.8253 5.62722 34.9668 5.62722 35.1381C5.62722 35.2455 5.65819 35.3425 5.72013 35.4293C5.78413 35.516 5.87085 35.5841 5.98028 35.6337C6.0897 35.6832 6.21358 35.708 6.35191 35.708ZM11.5548 36.1106H11.0469V34.3825C11.0469 34.0893 10.9633 33.855 10.7961 33.6795C10.6289 33.504 10.4069 33.4162 10.1302 33.4162C9.84325 33.4162 9.60994 33.5112 9.43032 33.7011C9.25276 33.889 9.16398 34.1368 9.16398 34.4444V36.1106H8.65607V33.0136H9.09894L9.11752 33.5153C9.23108 33.3336 9.38077 33.1943 9.56658 33.0972C9.7524 33.0002 9.97126 32.9517 10.2231 32.9517C10.634 32.9517 10.9582 33.0756 11.1956 33.3233C11.4351 33.5711 11.5548 33.9107 11.5548 34.3422V36.1106ZM15.2588 36.1106H14.8129L14.7943 35.6089C14.6807 35.7906 14.5311 35.9299 14.3452 36.027C14.1615 36.124 13.9437 36.1725 13.6918 36.1725C13.2809 36.1725 12.9557 36.0487 12.7162 35.8009C12.4788 35.5511 12.3601 35.2104 12.3601 34.7789V33.0136H12.868V34.7417C12.868 35.0349 12.9506 35.2692 13.1157 35.4447C13.283 35.6202 13.5049 35.708 13.7816 35.708C14.0706 35.708 14.3039 35.613 14.4815 35.4231C14.6611 35.2331 14.7509 34.9854 14.7509 34.6798V33.0136H15.2588V36.1106ZM18.4178 36.2035C18.0688 36.2035 17.7468 36.1436 17.4515 36.0239C17.1583 35.9041 16.9033 35.7359 16.6866 35.5191C16.4698 35.3002 16.3015 35.0442 16.1817 34.751C16.062 34.4558 16.0021 34.1347 16.0021 33.7879C16.0021 33.4389 16.062 33.1179 16.1817 32.8247C16.3015 32.5294 16.4698 32.2734 16.6866 32.0566C16.9033 31.8399 17.1583 31.6716 17.4515 31.5518C17.7468 31.4321 18.0688 31.3722 18.4178 31.3722C18.7667 31.3722 19.0877 31.4321 19.3809 31.5518C19.6741 31.6716 19.9291 31.8399 20.1459 32.0566C20.3627 32.2734 20.5309 32.5294 20.6507 32.8247C20.7704 33.1179 20.8303 33.4389 20.8303 33.7879C20.8303 34.1347 20.7704 34.4558 20.6507 34.751C20.5309 35.0442 20.3627 35.3002 20.1459 35.5191C19.9291 35.7359 19.6741 35.9041 19.3809 36.0239C19.0877 36.1436 18.7667 36.2035 18.4178 36.2035ZM18.4178 35.7204C18.6841 35.7204 18.9298 35.6719 19.1548 35.5748C19.382 35.4778 19.5791 35.3425 19.7464 35.1691C19.9136 34.9936 20.0427 34.7892 20.1335 34.5559C20.2264 34.3205 20.2729 34.0645 20.2729 33.7879C20.2729 33.5112 20.2264 33.2552 20.1335 33.0198C20.0427 32.7844 19.9136 32.58 19.7464 32.4066C19.5791 32.2311 19.382 32.0959 19.1548 32.0009C18.9298 31.9039 18.6841 31.8553 18.4178 31.8553C18.1514 31.8553 17.9047 31.9039 17.6776 32.0009C17.4525 32.0959 17.2564 32.2311 17.0892 32.4066C16.9219 32.58 16.7918 32.7844 16.6989 33.0198C16.606 33.2552 16.5596 33.5112 16.5596 33.7879C16.5596 34.0645 16.606 34.3205 16.6989 34.5559C16.7918 34.7913 16.9219 34.9967 17.0892 35.1722C17.2564 35.3456 17.4525 35.4809 17.6776 35.5779C17.9047 35.6729 18.1514 35.7204 18.4178 35.7204ZM22.1156 36.1106H21.5767V31.3412H22.1156V36.1106ZM25.9125 36.1106H25.4665L25.4479 35.6089C25.3344 35.7906 25.1847 35.9299 24.9989 36.027C24.8151 36.124 24.5973 36.1725 24.3454 36.1725C23.9345 36.1725 23.6093 36.0487 23.3698 35.8009C23.1324 35.5511 23.0137 35.2104 23.0137 34.7789V33.0136H23.5216V34.7417C23.5216 35.0349 23.6042 35.2692 23.7694 35.4447C23.9366 35.6202 24.1585 35.708 24.4352 35.708C24.7243 35.708 24.9576 35.613 25.1351 35.4231C25.3148 35.2331 25.4046 34.9854 25.4046 34.6798V33.0136H25.9125V36.1106ZM30.1275 36.1106H29.539L28.8391 33.7445L28.1392 36.1106H27.5508L26.5628 33.0136H27.1017L27.8419 35.4912L28.6007 33.0136H29.0776L29.8363 35.4912L30.5796 33.0136H31.1185L30.1275 36.1106ZM34.1473 36.1106H33.7107L33.6766 35.7018C33.5631 35.8484 33.4185 35.964 33.243 36.0487C33.0675 36.1312 32.8714 36.1725 32.6546 36.1725C32.4316 36.1725 32.2324 36.1292 32.0569 36.0425C31.8814 35.9537 31.7431 35.8329 31.6419 35.6801C31.5428 35.5273 31.4932 35.3539 31.4932 35.1598C31.4932 34.9554 31.5469 34.7758 31.6543 34.6209C31.7637 34.464 31.9113 34.3412 32.0971 34.2524C32.285 34.1636 32.4977 34.1192 32.7351 34.1192C32.89 34.1192 33.0479 34.1388 33.209 34.1781C33.37 34.2152 33.5135 34.2669 33.6394 34.3329V34.2029C33.6394 34.0377 33.5982 33.8973 33.5156 33.7817C33.433 33.664 33.3225 33.5742 33.1842 33.5122C33.0459 33.4482 32.8931 33.4162 32.7258 33.4162C32.5813 33.4162 32.4337 33.4431 32.283 33.4967C32.1322 33.5484 31.9877 33.6289 31.8494 33.7383L31.6822 33.3016C31.8618 33.186 32.0507 33.0993 32.2489 33.0415C32.4471 32.9816 32.6432 32.9517 32.8373 32.9517C33.1057 32.9517 33.337 33.0064 33.531 33.1158C33.7272 33.2232 33.8789 33.377 33.9863 33.5773C34.0937 33.7755 34.1473 34.0108 34.1473 34.2834V36.1106ZM32.7444 35.708C32.9034 35.708 33.049 35.675 33.1811 35.6089C33.3132 35.5428 33.4206 35.4478 33.5032 35.324C33.5858 35.198 33.6312 35.0494 33.6394 34.878V34.8253C33.5259 34.7366 33.3979 34.6684 33.2554 34.6209C33.115 34.5714 32.9715 34.5466 32.8249 34.5466C32.5958 34.5466 32.4037 34.6024 32.2489 34.7139C32.0961 34.8253 32.0197 34.9668 32.0197 35.1381C32.0197 35.2455 32.0507 35.3425 32.1126 35.4293C32.1766 35.516 32.2634 35.5841 32.3728 35.6337C32.4822 35.6832 32.6061 35.708 32.7444 35.708ZM35.5565 37.6591H35.0486V33.0136H35.5007L35.5255 33.4658C35.67 33.3068 35.8445 33.1819 36.0489 33.091C36.2533 32.9981 36.4773 32.9517 36.7209 32.9517C37.0244 32.9517 37.2959 33.0219 37.5354 33.1623C37.777 33.3027 37.967 33.4947 38.1053 33.7383C38.2457 33.9799 38.3159 34.2545 38.3159 34.5621C38.3159 34.8677 38.2457 35.1423 38.1053 35.3859C37.967 35.6295 37.777 35.8215 37.5354 35.9619C37.2959 36.1023 37.0244 36.1725 36.7209 36.1725C36.4876 36.1725 36.2708 36.1302 36.0706 36.0456C35.8724 35.9609 35.701 35.8432 35.5565 35.6925V37.6591ZM36.6807 35.708C36.8975 35.708 37.0895 35.6595 37.2567 35.5624C37.424 35.4633 37.554 35.3271 37.6469 35.1536C37.7419 34.9802 37.7894 34.782 37.7894 34.559C37.7894 34.334 37.7419 34.1358 37.6469 33.9644C37.552 33.791 37.4209 33.6547 37.2536 33.5556C37.0885 33.4565 36.8985 33.4069 36.6838 33.4069C36.4794 33.4069 36.2946 33.4524 36.1294 33.5432C35.9663 33.634 35.8342 33.759 35.733 33.9179C35.6318 34.0748 35.573 34.2545 35.5565 34.4568V34.6674C35.573 34.8697 35.6308 35.0494 35.7299 35.2063C35.829 35.3632 35.9601 35.486 36.1232 35.5748C36.2884 35.6636 36.4742 35.708 36.6807 35.708ZM40.4064 36.1725C40.0987 36.1725 39.8221 36.1023 39.5764 35.9619C39.3307 35.8215 39.1366 35.6306 38.9941 35.389C38.8537 35.1454 38.7835 34.8697 38.7835 34.5621C38.7835 34.2565 38.8537 33.983 38.9941 33.7414C39.1366 33.4978 39.3307 33.3058 39.5764 33.1654C39.8221 33.0229 40.0987 32.9517 40.4064 32.9517C40.714 32.9517 40.9896 33.0229 41.2333 33.1654C41.4769 33.3058 41.6689 33.4978 41.8093 33.7414C41.9497 33.983 42.0199 34.2565 42.0199 34.5621C42.0199 34.8697 41.9497 35.1454 41.8093 35.389C41.6689 35.6306 41.4769 35.8215 41.2333 35.9619C40.9896 36.1023 40.714 36.1725 40.4064 36.1725ZM40.4033 35.7142C40.6118 35.7142 40.7986 35.6636 40.9638 35.5624C41.129 35.4613 41.2591 35.324 41.354 35.1505C41.4511 34.9771 41.4996 34.7799 41.4996 34.559C41.4996 34.3422 41.4511 34.1471 41.354 33.9737C41.2591 33.8002 41.129 33.6629 40.9638 33.5618C40.7986 33.4606 40.6118 33.41 40.4033 33.41C40.1947 33.41 40.0068 33.4606 39.8396 33.5618C39.6744 33.6629 39.5433 33.8002 39.4463 33.9737C39.3513 34.1471 39.3038 34.3422 39.3038 34.559C39.3038 34.7799 39.3513 34.9771 39.4463 35.1505C39.5433 35.324 39.6744 35.4613 39.8396 35.5624C40.0068 35.6636 40.1947 35.7142 40.4033 35.7142ZM48.9633 36.1106H48.4183V32.2301L46.8667 35.3302H46.3742L44.8289 32.2487V36.1106H44.2838V31.4651H44.9868L46.622 34.7572L48.251 31.4651H48.9633V36.1106ZM50.1928 32.035C50.1061 32.035 50.0328 32.005 49.9729 31.9452C49.9151 31.8832 49.8862 31.8089 49.8862 31.7222C49.8862 31.6375 49.9151 31.5653 49.9729 31.5054C50.0328 31.4455 50.1061 31.4156 50.1928 31.4156C50.2816 31.4156 50.3559 31.4455 50.4158 31.5054C50.4757 31.5653 50.5056 31.6375 50.5056 31.7222C50.5056 31.8089 50.4757 31.8832 50.4158 31.9452C50.3559 32.005 50.2816 32.035 50.1928 32.035ZM50.4468 36.1106H49.9389V33.0136H50.4468V36.1106ZM53.999 35.6646C53.8483 35.8277 53.6697 35.9537 53.4632 36.0425C53.2568 36.1292 53.0348 36.1725 52.7974 36.1725C52.4898 36.1725 52.2131 36.1023 51.9674 35.9619C51.7238 35.8215 51.5307 35.6295 51.3883 35.3859C51.2479 35.1423 51.1777 34.8677 51.1777 34.5621C51.1777 34.2545 51.2479 33.9799 51.3883 33.7383C51.5307 33.4947 51.7238 33.3027 51.9674 33.1623C52.2131 33.0219 52.4898 32.9517 52.7974 32.9517C53.0328 32.9517 53.2537 32.995 53.4601 33.0817C53.6666 33.1685 53.8452 33.2934 53.9959 33.4565L53.6924 33.7755C53.583 33.6598 53.4519 33.5711 53.2991 33.5091C53.1484 33.4472 52.9884 33.4162 52.8191 33.4162C52.6023 33.4162 52.4092 33.4658 52.2399 33.5649C52.0727 33.6619 51.9406 33.7961 51.8435 33.9675C51.7485 34.1388 51.7011 34.336 51.7011 34.559C51.7011 34.782 51.7485 34.9802 51.8435 35.1536C51.9406 35.3271 52.0727 35.4633 52.2399 35.5624C52.4092 35.6595 52.6023 35.708 52.8191 35.708C52.9884 35.708 53.1494 35.677 53.3022 35.6151C53.455 35.5511 53.5851 35.4623 53.6924 35.3487L53.999 35.6646ZM54.7144 36.1106V31.4651H55.2223V33.4782C55.4556 33.1272 55.8169 32.9517 56.3063 32.9517C56.7171 32.9517 57.0372 33.0745 57.2663 33.3202C57.4976 33.5638 57.6132 33.9045 57.6132 34.3422V36.1106H57.1053V34.4599C57.1053 34.1275 57.0227 33.8694 56.8575 33.6857C56.6944 33.4998 56.4663 33.4069 56.1731 33.4069C55.8779 33.4069 55.6456 33.5009 55.4763 33.6888C55.307 33.8766 55.2223 34.1337 55.2223 34.4599V36.1106H54.7144ZM61.0106 36.1106H60.5739L60.5399 35.7018C60.4263 35.8484 60.2818 35.964 60.1063 36.0487C59.9308 36.1312 59.7346 36.1725 59.5178 36.1725C59.2949 36.1725 59.0956 36.1292 58.9201 36.0425C58.7446 35.9537 58.6063 35.8329 58.5051 35.6801C58.406 35.5273 58.3565 35.3539 58.3565 35.1598C58.3565 34.9554 58.4102 34.7758 58.5175 34.6209C58.6269 34.464 58.7746 34.3412 58.9604 34.2524C59.1483 34.1636 59.3609 34.1192 59.5984 34.1192C59.7532 34.1192 59.9112 34.1388 60.0722 34.1781C60.2333 34.2152 60.3767 34.2669 60.5027 34.3329V34.2029C60.5027 34.0377 60.4614 33.8973 60.3788 33.7817C60.2962 33.664 60.1858 33.5742 60.0474 33.5122C59.9091 33.4482 59.7563 33.4162 59.5891 33.4162C59.4446 33.4162 59.2969 33.4431 59.1462 33.4967C58.9955 33.5484 58.851 33.6289 58.7126 33.7383L58.5454 33.3016C58.725 33.186 58.9139 33.0993 59.1121 33.0415C59.3104 32.9816 59.5065 32.9517 59.7006 32.9517C59.969 32.9517 60.2002 33.0064 60.3943 33.1158C60.5904 33.2232 60.7422 33.377 60.8496 33.5773C60.9569 33.7755 61.0106 34.0108 61.0106 34.2834V36.1106ZM59.6077 35.708C59.7666 35.708 59.9122 35.675 60.0443 35.6089C60.1765 35.5428 60.2838 35.4478 60.3664 35.324C60.449 35.198 60.4944 35.0494 60.5027 34.878V34.8253C60.3891 34.7366 60.2611 34.6684 60.1187 34.6209C59.9783 34.5714 59.8348 34.5466 59.6882 34.5466C59.459 34.5466 59.267 34.6024 59.1121 34.7139C58.9594 34.8253 58.883 34.9668 58.883 35.1381C58.883 35.2455 58.9139 35.3425 58.9759 35.4293C59.0399 35.516 59.1266 35.5841 59.236 35.6337C59.3454 35.6832 59.4693 35.708 59.6077 35.708ZM64.6279 35.7297C64.2438 36.0249 63.8206 36.1725 63.3581 36.1725C63.036 36.1725 62.747 36.1003 62.491 35.9557C62.2349 35.8112 62.0326 35.6151 61.8839 35.3673C61.7374 35.1175 61.6641 34.8357 61.6641 34.5218C61.6641 34.2204 61.7322 33.952 61.8685 33.7166C62.0047 33.4792 62.1916 33.2923 62.429 33.1561C62.6664 33.0198 62.9359 32.9517 63.2373 32.9517C63.547 32.9517 63.8196 33.026 64.0549 33.1747C64.2924 33.3233 64.4771 33.5298 64.6093 33.7941C64.7414 34.0583 64.8075 34.3639 64.8075 34.7108V34.8099H62.2153C62.2525 34.9916 62.3268 35.1495 62.4383 35.2837C62.5519 35.4179 62.6923 35.5222 62.8595 35.5965C63.0267 35.6708 63.2136 35.708 63.42 35.708C63.7752 35.708 64.0993 35.5913 64.3925 35.358L64.6279 35.7297ZM62.1967 34.3763H64.3275C64.3048 34.1843 64.2449 34.017 64.1478 33.8746C64.0529 33.73 63.929 33.6175 63.7762 33.537C63.6255 33.4565 63.4551 33.4162 63.2652 33.4162C63.0732 33.4162 62.8998 33.4565 62.7449 33.537C62.5921 33.6175 62.4672 33.73 62.3702 33.8746C62.2752 34.017 62.2174 34.1843 62.1967 34.3763ZM66.0618 36.1106H65.5229V31.3412H66.0618V36.1106ZM69.4994 34.751H67.0218V34.3515H69.4994V34.751ZM70.6918 36.1106H70.1188L72.0266 31.4651H72.6181L74.5227 36.1106H73.9498L73.445 34.8563H71.1966L70.6918 36.1106ZM71.3886 34.3732H73.253L72.3208 32.0535L71.3886 34.3732ZM75.969 37.6591H75.4147L76.065 36.0858L74.5847 33.0136H75.1452L76.3097 35.5005L77.3379 33.0136H77.8892L75.969 37.6591ZM81.2587 35.7297C80.8747 36.0249 80.4514 36.1725 79.9889 36.1725C79.6668 36.1725 79.3778 36.1003 79.1218 35.9557C78.8657 35.8112 78.6634 35.6151 78.5148 35.3673C78.3682 35.1175 78.2949 34.8357 78.2949 34.5218C78.2949 34.2204 78.363 33.952 78.4993 33.7166C78.6355 33.4792 78.8224 33.2923 79.0598 33.1561C79.2973 33.0198 79.5667 32.9517 79.8681 32.9517C80.1778 32.9517 80.4504 33.026 80.6857 33.1747C80.9232 33.3233 81.108 33.5298 81.2401 33.7941C81.3722 34.0583 81.4383 34.3639 81.4383 34.7108V34.8099H78.8461C78.8833 34.9916 78.9576 35.1495 79.0691 35.2837C79.1827 35.4179 79.3231 35.5222 79.4903 35.5965C79.6575 35.6708 79.8444 35.708 80.0509 35.708C80.406 35.708 80.7301 35.5913 81.0233 35.358L81.2587 35.7297ZM78.8275 34.3763H80.9583C80.9356 34.1843 80.8757 34.017 80.7786 33.8746C80.6837 33.73 80.5598 33.6175 80.407 33.537C80.2563 33.4565 80.086 33.4162 79.896 33.4162C79.704 33.4162 79.5306 33.4565 79.3757 33.537C79.2229 33.6175 79.098 33.73 79.001 33.8746C78.906 34.017 78.8482 34.1843 78.8275 34.3763ZM85.0525 36.1106H84.5446V34.3825C84.5446 34.0893 84.461 33.855 84.2937 33.6795C84.1265 33.504 83.9045 33.4162 83.6279 33.4162C83.3409 33.4162 83.1076 33.5112 82.928 33.7011C82.7504 33.889 82.6616 34.1368 82.6616 34.4444V36.1106H82.1537V33.0136H82.5966L82.6152 33.5153C82.7287 33.3336 82.8784 33.1943 83.0642 33.0972C83.25 33.0002 83.4689 32.9517 83.7208 32.9517C84.1316 32.9517 84.4558 33.0756 84.6932 33.3233C84.9327 33.5711 85.0525 33.9107 85.0525 34.3422V36.1106ZM86.2169 32.035C86.1302 32.035 86.0569 32.005 85.9971 31.9452C85.9393 31.8832 85.9103 31.8089 85.9103 31.7222C85.9103 31.6375 85.9393 31.5653 85.9971 31.5054C86.0569 31.4455 86.1302 31.4156 86.2169 31.4156C86.3057 31.4156 86.3801 31.4455 86.4399 31.5054C86.4998 31.5653 86.5297 31.6375 86.5297 31.7222C86.5297 31.8089 86.4998 31.8832 86.4399 31.9452C86.3801 32.005 86.3057 32.035 86.2169 32.035ZM86.4709 36.1106H85.963V33.0136H86.4709V36.1106Z" fill="#661166"/>
</svg>
