<svg width="152" height="110" viewBox="0 0 152 110" fill="none" xmlns="http://www.w3.org/2000/svg">
<path d="M37.4648 109.897C30.5665 109.897 24.2629 108.113 18.554 104.545C12.8451 100.739 8.32551 95.6244 4.99531 89.2019C1.6651 82.5415 0 74.8107 0 66.0094C0 59.1111 1.42723 52.3318 4.28169 45.6714C7.13615 38.7731 11.061 32.3506 16.0563 26.4038C21.2895 20.2191 27.3552 14.867 34.2535 10.3474C41.1518 5.82787 48.6448 2.37873 56.7324 0L72.0751 19.2676C62.3224 23.5493 54.3537 28.6635 48.169 34.6103C42.2222 40.5571 39.2488 45.6714 39.2488 49.9531C39.2488 52.8075 40.3192 55.4241 42.4601 57.8028C44.6009 60.1816 46.9797 62.5603 49.5962 64.939C55.3052 68.9828 59.1111 72.7887 61.0141 76.3568C63.1549 79.687 64.2253 83.374 64.2253 87.4179C64.2253 94.3161 61.7277 99.7872 56.7324 103.831C51.7371 107.875 45.3145 109.897 37.4648 109.897ZM117.39 109.897C110.491 109.897 104.188 108.113 98.4789 104.545C92.77 100.739 88.2504 95.6244 84.9202 89.2019C81.59 82.5415 79.9249 74.8107 79.9249 66.0094C79.9249 59.1111 81.3521 52.3318 84.2066 45.6714C87.061 38.7731 90.9859 32.3506 95.9812 26.4038C101.214 20.2191 107.28 14.867 114.178 10.3474C121.077 5.82787 128.57 2.37873 136.657 0L152 19.2676C142.247 23.5493 134.279 28.6635 128.094 34.6103C122.147 40.5571 119.174 45.6714 119.174 49.9531C119.174 52.8075 120.244 55.4241 122.385 57.8028C124.526 60.1816 126.905 62.5603 129.521 64.939C135.23 68.9828 139.036 72.7887 140.939 76.3568C143.08 79.687 144.15 83.374 144.15 87.4179C144.15 94.3161 141.653 99.7872 136.657 103.831C131.662 107.875 125.239 109.897 117.39 109.897Z" fill="#5F3967"/>
</svg>
